<svg width="128" height="128" viewBox="0 0 128 128" xmlns="http://www.w3.org/2000/svg">
  <defs>
    <linearGradient id="gradient" x1="0%" y1="0%" x2="100%" y2="100%">
      <stop offset="0%" style="stop-color:#667eea;stop-opacity:1" />
      <stop offset="100%" style="stop-color:#764ba2;stop-opacity:1" />
    </linearGradient>
  </defs>
  
  <!-- Background circle -->
  <circle cx="64" cy="64" r="60" fill="url(#gradient)" stroke="#fff" stroke-width="4"/>
  
  <!-- Thread symbol -->
  <g transform="translate(64,64)">
    <!-- Main thread line -->
    <path d="M -30,-20 Q -10,-25 0,-20 Q 10,-15 30,-20" stroke="#fff" stroke-width="3" fill="none"/>
    <path d="M -30,-5 Q -10,-10 0,-5 Q 10,0 30,-5" stroke="#fff" stroke-width="3" fill="none"/>
    <path d="M -30,10 Q -10,5 0,10 Q 10,15 30,10" stroke="#fff" stroke-width="3" fill="none"/>
    
    <!-- Connection nodes -->
    <circle cx="-25" cy="-20" r="3" fill="#fff"/>
    <circle cx="0" cy="-20" r="3" fill="#fff"/>
    <circle cx="25" cy="-20" r="3" fill="#fff"/>
    
    <circle cx="-25" cy="-5" r="3" fill="#fff"/>
    <circle cx="0" cy="-5" r="3" fill="#fff"/>
    <circle cx="25" cy="-5" r="3" fill="#fff"/>
    
    <circle cx="-25" cy="10" r="3" fill="#fff"/>
    <circle cx="0" cy="10" r="3" fill="#fff"/>
    <circle cx="25" cy="10" r="3" fill="#fff"/>
    
    <!-- Connecting lines -->
    <line x1="-25" y1="-17" x2="-25" y2="-8" stroke="#fff" stroke-width="2"/>
    <line x1="0" y1="-17" x2="0" y2="-8" stroke="#fff" stroke-width="2"/>
    <line x1="25" y1="-17" x2="25" y2="-8" stroke="#fff" stroke-width="2"/>
    
    <line x1="-25" y1="-2" x2="-25" y2="7" stroke="#fff" stroke-width="2"/>
    <line x1="0" y1="-2" x2="0" y2="7" stroke="#fff" stroke-width="2"/>
    <line x1="25" y1="-2" x2="25" y2="7" stroke="#fff" stroke-width="2"/>
  </g>
  
  <!-- Chat bubble -->
  <path d="M 20,85 Q 20,80 25,80 L 45,80 Q 50,80 50,85 L 50,95 Q 50,100 45,100 L 30,100 L 25,105 L 25,100 Q 20,100 20,95 Z" fill="#fff" opacity="0.9"/>
</svg>
